<?xml version="1.0" encoding="UTF-8" standalone="no"?>
<!DOCTYPE svg PUBLIC "-//W3C//DTD SVG 1.1//EN" "http://www.w3.org/Graphics/SVG/1.1/DTD/svg11.dtd">
<svg width="100%" height="100%" viewBox="0 0 2481 3508" version="1.1" xmlns="http://www.w3.org/2000/svg" xmlns:xlink="http://www.w3.org/1999/xlink" xml:space="preserve" xmlns:serif="http://www.serif.com/" style="fill-rule:evenodd;clip-rule:evenodd;stroke-linecap:round;stroke-linejoin:round;stroke-miterlimit:1.5;">
    <g transform="matrix(1.64542,0.398003,0,1.77993,-2561.52,82.954)">
        <path d="M2119.46,411.248C2083.05,410.701 2049.52,397.116 2022.66,374.609C1995.8,397.116 1962.27,410.701 1925.86,411.248C1925.72,414.16 1925.65,417.092 1925.65,420.044C1925.65,491.508 1966.88,551.652 2022.66,568.865C2078.45,551.652 2119.67,491.508 2119.67,420.044C2119.67,417.092 2119.6,414.16 2119.46,411.248Z" style="fill:rgb(255,176,127);"/>
    </g>
    <g transform="matrix(1.64542,0.398003,0,1.77993,-2561.52,82.954)">
        <path d="M2124.61,406.235L2120.79,406.178C2085.38,405.646 2052.81,392.365 2026.68,370.473L2023.61,367.898L2019.71,371.164C1994,392.71 1961.89,405.654 1927.03,406.178L1920.82,406.271L1920.54,412.219C1920.39,415.204 1920.32,418.21 1920.32,421.236C1920.32,494.529 1962.79,556.078 2020,573.731L2021.47,574.183L2023.15,573.664C2081.3,555.721 2125,493.345 2125,418.851C2125,415.828 2124.93,412.824 2124.79,409.841L2124.61,406.235ZM2021.69,381.241C1995.97,401.546 1964.79,414.23 1931.01,416.094C1930.99,417.011 1930.98,417.93 1930.98,418.851C1930.98,487.854 1970.24,546.156 2023.85,563.532C2076.4,546.365 2114.34,488.955 2114.34,421.236C2114.34,419.554 2114.31,417.879 2114.26,416.211C2079.71,414.841 2047.79,402.089 2021.69,381.241Z"/>
    </g>
    <g transform="matrix(1.64542,0.398003,0,1.77993,-2594.15,110.545)">
        <path d="M2119.46,411.248C2083.05,410.701 2049.52,397.116 2022.66,374.609C1995.8,397.116 1962.27,410.701 1925.86,411.248C1925.72,414.16 1925.65,417.092 1925.65,420.044C1925.65,491.508 1966.88,551.652 2022.66,568.865C2078.45,551.652 2119.67,491.508 2119.67,420.044C2119.67,417.092 2119.6,414.16 2119.46,411.248Z" style="fill:rgb(255,137,63);"/>
    </g>
    <g transform="matrix(1.64542,0.398003,0,1.77993,-2594.15,110.545)">
        <path d="M2124.61,406.235L2120.79,406.178C2085.38,405.646 2052.81,392.365 2026.68,370.473L2023.61,367.898L2019.71,371.164C1994,392.71 1961.89,405.654 1927.03,406.178L1920.82,406.271L1920.54,412.219C1920.39,415.204 1920.32,418.21 1920.32,421.236C1920.32,494.529 1962.79,556.078 2020,573.731L2021.47,574.183L2023.15,573.664C2081.3,555.721 2125,493.345 2125,418.851C2125,415.828 2124.93,412.824 2124.79,409.841L2124.61,406.235ZM2021.69,381.241C1995.97,401.546 1964.79,414.23 1931.01,416.094C1930.99,417.011 1930.98,417.93 1930.98,418.851C1930.98,487.854 1970.24,546.156 2023.85,563.532C2076.4,546.365 2114.34,488.955 2114.34,421.236C2114.34,419.554 2114.31,417.879 2114.26,416.211C2079.71,414.841 2047.79,402.089 2021.69,381.241Z"/>
    </g>
    <g transform="matrix(1.64542,0.398003,0,1.77993,-2626.79,138.136)">
        <path d="M2119.46,411.248C2083.05,410.701 2049.52,397.116 2022.66,374.609C1995.8,397.116 1962.27,410.701 1925.86,411.248C1925.72,414.16 1925.65,417.092 1925.65,420.044C1925.65,491.508 1966.88,551.652 2022.66,568.865C2078.45,551.652 2119.67,491.508 2119.67,420.044C2119.67,417.092 2119.6,414.16 2119.46,411.248Z" style="fill:rgb(255,98,0);"/>
    </g>
    <g transform="matrix(0.421187,0.129483,0,0.383821,-182.542,744.852)">
        <path d="M2180.56,1892.32C2180.56,1869.93 2162.41,1851.78 2140.02,1851.78C2082.14,1851.78 1987.04,1846.12 1929.15,1846.12C1906.76,1846.12 1888.61,1864.27 1888.61,1886.66C1888.61,1930.03 1888.61,1998.43 1888.61,2041.8C1888.61,2064.19 1906.76,2082.34 1929.15,2082.34C1987.04,2082.34 2082.14,2088 2140.02,2088C2162.41,2088 2180.56,2069.85 2180.56,2047.46L2180.56,1892.32ZM2293.26,1854.38C2296.46,1852.65 2300.32,1852.72 2303.45,1854.58C2306.57,1856.44 2308.48,1859.8 2308.48,1863.43C2308.48,1907.1 2308.48,2021.36 2308.48,2065.03C2308.48,2068.66 2306.57,2072.02 2303.45,2073.88C2300.32,2075.74 2296.46,2075.81 2293.26,2074.08C2268.61,2060.69 2221.07,2038.02 2205.1,2029.35C2201.78,2027.54 2199.71,2024.07 2199.71,2020.29L2199.71,1914.44C2199.71,1910.66 2201.78,1907.19 2205.1,1905.39C2221.07,1896.72 2268.61,1867.77 2293.26,1854.38Z" style="fill:rgb(251,243,238);stroke:rgb(9,0,0);stroke-width:18.52px;"/>
    </g>
    <g transform="matrix(1.64542,0.398003,0,1.77993,-2626.79,138.136)">
        <path d="M2124.61,406.235L2120.79,406.178C2085.38,405.646 2052.81,392.365 2026.68,370.473L2023.61,367.898L2019.71,371.164C1994,392.71 1961.89,405.654 1927.03,406.178L1920.82,406.271L1920.54,412.219C1920.39,415.204 1920.32,418.21 1920.32,421.236C1920.32,494.529 1962.79,556.078 2020,573.731L2021.47,574.183L2023.15,573.664C2081.3,555.721 2125,493.345 2125,418.851C2125,415.828 2124.93,412.824 2124.79,409.841L2124.61,406.235ZM2021.69,381.241C1995.97,401.546 1964.79,414.23 1931.01,416.094C1930.99,417.011 1930.98,417.93 1930.98,418.851C1930.98,487.854 1970.24,546.156 2023.85,563.532C2076.4,546.365 2114.34,488.955 2114.34,421.236C2114.34,419.554 2114.31,417.879 2114.26,416.211C2079.71,414.841 2047.79,402.089 2021.69,381.241Z"/>
    </g>
    <path d="M1947.37,1670.06L1875.2,1831.7C1869.34,1845.24 1862.57,1854.84 1854.89,1860.52C1847.21,1866.19 1837.97,1869.02 1827.17,1869.02C1820.22,1869.02 1813.73,1867.92 1807.69,1865.73C1801.65,1863.53 1796.44,1860.24 1792.05,1855.85L1801.1,1841.31C1808.42,1848.62 1817.2,1852.28 1827.45,1852.28C1834.03,1852.28 1839.66,1850.45 1844.32,1846.79C1848.99,1843.13 1853.33,1836.91 1857.36,1828.13L1863.67,1814.14L1799.18,1670.06L1819.49,1670.06L1873.83,1792.73L1928.16,1670.06L1947.37,1670.06ZM1252.53,1815.78C1238.62,1815.78 1226.09,1812.63 1214.93,1806.32C1203.77,1800.01 1194.99,1791.27 1188.59,1780.11C1182.18,1768.95 1178.98,1756.33 1178.98,1742.24C1178.98,1728.15 1182.18,1715.53 1188.59,1704.37C1194.99,1693.21 1203.77,1684.52 1214.93,1678.3C1226.09,1672.08 1238.62,1668.97 1252.53,1668.97C1266.43,1668.97 1278.96,1672.08 1290.12,1678.3C1301.28,1684.52 1310.02,1693.21 1316.33,1704.37C1322.64,1715.53 1325.8,1728.15 1325.8,1742.24C1325.8,1756.33 1322.64,1768.95 1316.33,1780.11C1310.02,1791.27 1301.28,1800.01 1290.12,1806.32C1278.96,1812.63 1266.43,1815.78 1252.53,1815.78ZM1424.59,1815.78C1410.69,1815.78 1398.15,1812.63 1386.99,1806.32C1375.83,1800.01 1367.05,1791.27 1360.65,1780.11C1354.25,1768.95 1351.05,1756.33 1351.05,1742.24C1351.05,1728.15 1354.25,1715.53 1360.65,1704.37C1367.05,1693.21 1375.83,1684.52 1386.99,1678.3C1398.15,1672.08 1410.69,1668.97 1424.59,1668.97C1438.5,1668.97 1451.03,1672.08 1462.19,1678.3C1473.35,1684.52 1482.08,1693.21 1488.39,1704.37C1494.71,1715.53 1497.86,1728.15 1497.86,1742.24C1497.86,1756.33 1494.71,1768.95 1488.39,1780.11C1482.08,1791.27 1473.35,1800.01 1462.19,1806.32C1451.03,1812.63 1438.5,1815.78 1424.59,1815.78ZM1130.41,1814.41L1086.5,1752.67C1081.56,1753.22 1076.44,1753.49 1071.13,1753.49L1019.54,1753.49L1019.54,1814.41L999.231,1814.41L999.231,1622.31L1071.13,1622.31C1095.65,1622.31 1114.86,1628.17 1128.76,1639.88C1142.66,1651.59 1149.62,1667.69 1149.62,1688.18C1149.62,1703.18 1145.82,1715.85 1138.23,1726.18C1130.63,1736.52 1119.8,1743.98 1105.71,1748.55L1152.63,1814.41L1130.41,1814.41ZM1717.68,1668.97C1735.79,1668.97 1750.01,1674.18 1760.35,1684.61C1770.69,1695.04 1775.86,1710.4 1775.86,1730.71L1775.86,1814.41L1756.37,1814.41L1756.37,1732.63C1756.37,1717.63 1752.76,1706.2 1745.53,1698.33C1738.3,1690.46 1728.11,1686.53 1714.93,1686.53C1699.93,1686.53 1688.13,1691.15 1679.53,1700.39C1670.93,1709.63 1666.63,1722.39 1666.63,1738.67L1666.63,1814.41L1647.15,1814.41L1647.15,1732.63C1647.15,1717.63 1643.54,1706.2 1636.31,1698.33C1629.08,1690.46 1618.79,1686.53 1605.44,1686.53C1590.62,1686.53 1578.86,1691.15 1570.17,1700.39C1561.48,1709.63 1557.14,1722.39 1557.14,1738.67L1557.14,1814.41L1537.65,1814.41L1537.65,1670.06L1556.32,1670.06L1556.32,1696.41C1561.44,1687.63 1568.57,1680.86 1577.72,1676.1C1586.87,1671.35 1597.39,1668.97 1609.28,1668.97C1621.35,1668.97 1631.83,1671.53 1640.7,1676.65C1649.57,1681.77 1656.2,1689.37 1660.6,1699.43C1665.9,1689.91 1673.54,1682.46 1683.51,1677.06C1693.48,1671.66 1704.87,1668.97 1717.68,1668.97ZM1252.53,1798.5C1262.77,1798.5 1271.96,1796.16 1280.11,1791.5C1288.25,1786.83 1294.6,1780.2 1299.18,1771.6C1303.75,1763 1306.04,1753.22 1306.04,1742.24C1306.04,1731.26 1303.75,1721.47 1299.18,1712.88C1294.6,1704.28 1288.25,1697.64 1280.11,1692.98C1271.96,1688.31 1262.77,1685.98 1252.53,1685.98C1242.28,1685.98 1233.09,1688.31 1224.95,1692.98C1216.81,1697.64 1210.4,1704.28 1205.74,1712.88C1201.07,1721.47 1198.74,1731.26 1198.74,1742.24C1198.74,1753.22 1201.07,1763 1205.74,1771.6C1210.4,1780.2 1216.81,1786.83 1224.95,1791.5C1233.09,1796.16 1242.28,1798.5 1252.53,1798.5ZM1424.59,1798.5C1434.84,1798.5 1444.03,1796.16 1452.17,1791.5C1460.31,1786.83 1466.67,1780.2 1471.24,1771.6C1475.82,1763 1478.1,1753.22 1478.1,1742.24C1478.1,1731.26 1475.82,1721.47 1471.24,1712.88C1466.67,1704.28 1460.31,1697.64 1452.17,1692.98C1444.03,1688.31 1434.84,1685.98 1424.59,1685.98C1414.35,1685.98 1405.15,1688.31 1397.01,1692.98C1388.87,1697.64 1382.47,1704.28 1377.8,1712.88C1373.14,1721.47 1370.8,1731.26 1370.8,1742.24C1370.8,1753.22 1373.14,1763 1377.8,1771.6C1382.47,1780.2 1388.87,1786.83 1397.01,1791.5C1405.15,1796.16 1414.35,1798.5 1424.59,1798.5ZM1070.58,1736.2C1089.61,1736.2 1104.15,1731.99 1114.21,1723.58C1124.28,1715.16 1129.31,1703.36 1129.31,1688.18C1129.31,1672.63 1124.28,1660.69 1114.21,1652.36C1104.15,1644.04 1089.61,1639.88 1070.58,1639.88L1019.54,1639.88L1019.54,1736.2L1070.58,1736.2Z" style="fill-rule:nonzero;"/>
    <path d="M1392.85,1850.97L1392.85,1878.08C1392.85,1883.33 1391.57,1887.21 1389.01,1889.73C1386.44,1892.26 1382.58,1893.52 1377.42,1893.52C1374.56,1893.52 1371.85,1893.1 1369.29,1892.26C1366.73,1891.41 1364.65,1890.25 1363.04,1888.76L1365.15,1885.6C1366.64,1886.92 1368.45,1887.96 1370.58,1888.7C1372.71,1889.45 1374.95,1889.82 1377.3,1889.82C1381.21,1889.82 1384.09,1888.91 1385.93,1887.09C1387.77,1885.27 1388.68,1882.44 1388.68,1878.61L1388.68,1874.68C1387.39,1876.64 1385.7,1878.12 1383.61,1879.14C1381.52,1880.16 1379.2,1880.66 1376.65,1880.66C1373.76,1880.66 1371.13,1880.03 1368.76,1878.76C1366.4,1877.49 1364.54,1875.71 1363.19,1873.42C1361.84,1871.13 1361.16,1868.54 1361.16,1865.64C1361.16,1862.75 1361.84,1860.17 1363.19,1857.9C1364.54,1855.63 1366.39,1853.87 1368.73,1852.62C1371.08,1851.37 1373.72,1850.74 1376.65,1850.74C1379.28,1850.74 1381.64,1851.27 1383.76,1852.32C1385.87,1853.38 1387.57,1854.9 1388.86,1856.9L1388.86,1850.97L1392.85,1850.97ZM1308.88,1893.52C1307.59,1893.52 1306.37,1893.35 1305.21,1893.02C1304.06,1892.68 1303.11,1892.19 1302.37,1891.52L1303.84,1888.35C1305.05,1889.41 1306.65,1889.94 1308.65,1889.94C1310.29,1889.94 1311.55,1889.45 1312.43,1888.47C1313.31,1887.49 1313.75,1886.04 1313.75,1884.13L1313.75,1850.97L1317.92,1850.97L1317.92,1884.13C1317.92,1887.02 1317.13,1889.31 1315.57,1890.99C1314.01,1892.67 1311.78,1893.52 1308.88,1893.52ZM1340.33,1850.74C1344.36,1850.74 1347.45,1851.75 1349.6,1853.76C1351.76,1855.78 1352.83,1858.76 1352.83,1862.71L1352.83,1881.84L1348.84,1881.84L1348.84,1877.03C1347.9,1878.63 1346.52,1879.88 1344.7,1880.78C1342.89,1881.68 1340.72,1882.13 1338.22,1882.13C1334.78,1882.13 1332.04,1881.31 1330.01,1879.67C1327.97,1878.03 1326.95,1875.85 1326.95,1873.15C1326.95,1870.53 1327.9,1868.42 1329.8,1866.82C1331.7,1865.21 1334.72,1864.41 1338.87,1864.41L1348.67,1864.41L1348.67,1862.53C1348.67,1859.87 1347.92,1857.85 1346.44,1856.46C1344.95,1855.07 1342.78,1854.38 1339.92,1854.38C1337.97,1854.38 1336.09,1854.7 1334.29,1855.35C1332.49,1855.99 1330.94,1856.88 1329.65,1858.02L1327.78,1854.9C1329.34,1853.58 1331.22,1852.55 1333.41,1851.83C1335.6,1851.1 1337.91,1850.74 1340.33,1850.74ZM1079.39,1867.7L1053.57,1867.7C1053.8,1870.9 1055.04,1873.5 1057.27,1875.47C1059.5,1877.45 1062.31,1878.44 1065.71,1878.44C1067.63,1878.44 1069.39,1878.09 1071,1877.41C1072.6,1876.72 1073.99,1875.72 1075.16,1874.39L1077.51,1877.09C1076.14,1878.73 1074.43,1879.98 1072.38,1880.84C1070.32,1881.7 1068.06,1882.13 1065.6,1882.13C1062.43,1882.13 1059.62,1881.46 1057.18,1880.11C1054.73,1878.76 1052.83,1876.89 1051.46,1874.5C1050.09,1872.12 1049.4,1869.42 1049.4,1866.41C1049.4,1863.39 1050.06,1860.69 1051.37,1858.31C1052.68,1855.92 1054.48,1854.06 1056.77,1852.73C1059.06,1851.4 1061.63,1850.74 1064.48,1850.74C1067.34,1850.74 1069.9,1851.4 1072.17,1852.73C1074.44,1854.06 1076.22,1855.91 1077.51,1858.28C1078.8,1860.65 1079.45,1863.36 1079.45,1866.41L1079.39,1867.7ZM1201.09,1879.96C1200.31,1880.66 1199.34,1881.2 1198.18,1881.58C1197.03,1881.95 1195.83,1882.13 1194.57,1882.13C1191.68,1882.13 1189.45,1881.35 1187.88,1879.79C1186.32,1878.22 1185.54,1876.01 1185.54,1873.15L1185.54,1854.5L1180.02,1854.5L1180.02,1850.97L1185.54,1850.97L1185.54,1844.23L1189.7,1844.23L1189.7,1850.97L1199.09,1850.97L1199.09,1854.5L1189.7,1854.5L1189.7,1872.92C1189.7,1874.76 1190.16,1876.16 1191.08,1877.12C1192,1878.07 1193.32,1878.55 1195.04,1878.55C1195.9,1878.55 1196.74,1878.42 1197.54,1878.14C1198.34,1877.87 1199.03,1877.48 1199.62,1876.97L1201.09,1879.96ZM1415.33,1850.74C1419.35,1850.74 1422.44,1851.75 1424.6,1853.76C1426.75,1855.78 1427.82,1858.76 1427.82,1862.71L1427.82,1881.84L1423.83,1881.84L1423.83,1877.03C1422.89,1878.63 1421.52,1879.88 1419.7,1880.78C1417.88,1881.68 1415.72,1882.13 1413.21,1882.13C1409.77,1882.13 1407.03,1881.31 1405,1879.67C1402.96,1878.03 1401.95,1875.85 1401.95,1873.15C1401.95,1870.53 1402.89,1868.42 1404.79,1866.82C1406.69,1865.21 1409.71,1864.41 1413.86,1864.41L1423.66,1864.41L1423.66,1862.53C1423.66,1859.87 1422.91,1857.85 1421.43,1856.46C1419.94,1855.07 1417.77,1854.38 1414.91,1854.38C1412.96,1854.38 1411.08,1854.7 1409.28,1855.35C1407.48,1855.99 1405.94,1856.88 1404.64,1858.02L1402.77,1854.9C1404.33,1853.58 1406.21,1852.55 1408.4,1851.83C1410.59,1851.1 1412.9,1850.74 1415.33,1850.74ZM1161.01,1850.74C1165.04,1850.74 1168.13,1851.75 1170.28,1853.76C1172.43,1855.78 1173.51,1858.76 1173.51,1862.71L1173.51,1881.84L1169.52,1881.84L1169.52,1877.03C1168.58,1878.63 1167.2,1879.88 1165.38,1880.78C1163.56,1881.68 1161.4,1882.13 1158.9,1882.13C1155.45,1882.13 1152.72,1881.31 1150.68,1879.67C1148.65,1878.03 1147.63,1875.85 1147.63,1873.15C1147.63,1870.53 1148.58,1868.42 1150.48,1866.82C1152.37,1865.21 1155.4,1864.41 1159.54,1864.41L1169.34,1864.41L1169.34,1862.53C1169.34,1859.87 1168.6,1857.85 1167.11,1856.46C1165.63,1855.07 1163.45,1854.38 1160.6,1854.38C1158.64,1854.38 1156.77,1854.7 1154.97,1855.35C1153.17,1855.99 1151.62,1856.88 1150.33,1858.02L1148.45,1854.9C1150.02,1853.58 1151.89,1852.55 1154.09,1851.83C1156.28,1851.1 1158.58,1850.74 1161.01,1850.74ZM1281.36,1867.7L1255.54,1867.7C1255.78,1870.9 1257.01,1873.5 1259.24,1875.47C1261.47,1877.45 1264.29,1878.44 1267.69,1878.44C1269.61,1878.44 1271.37,1878.09 1272.97,1877.41C1274.57,1876.72 1275.96,1875.72 1277.14,1874.39L1279.48,1877.09C1278.11,1878.73 1276.4,1879.98 1274.35,1880.84C1272.3,1881.7 1270.04,1882.13 1267.57,1882.13C1264.4,1882.13 1261.6,1881.46 1259.15,1880.11C1256.71,1878.76 1254.8,1876.89 1253.43,1874.5C1252.06,1872.12 1251.38,1869.42 1251.38,1866.41C1251.38,1863.39 1252.03,1860.69 1253.34,1858.31C1254.65,1855.92 1256.45,1854.06 1258.74,1852.73C1261.03,1851.4 1263.6,1850.74 1266.46,1850.74C1269.31,1850.74 1271.87,1851.4 1274.14,1852.73C1276.41,1854.06 1278.19,1855.91 1279.48,1858.28C1280.77,1860.65 1281.42,1863.36 1281.42,1866.41L1281.36,1867.7ZM1040.01,1840.76L1040.01,1881.84L1035.73,1881.84L1035.73,1862.89L1010.03,1862.89L1010.03,1881.84L1005.69,1881.84L1005.69,1840.76L1010.03,1840.76L1010.03,1859.07L1035.73,1859.07L1035.73,1840.76L1040.01,1840.76ZM1232.89,1844.52L1218.46,1844.52L1218.46,1840.76L1251.67,1840.76L1251.67,1844.52L1237.23,1844.52L1237.23,1881.84L1232.89,1881.84L1232.89,1844.52ZM1293.92,1857.02C1294.9,1854.94 1296.35,1853.38 1298.29,1852.32C1300.23,1851.27 1302.62,1850.74 1305.48,1850.74L1305.48,1854.79L1304.48,1854.73C1301.23,1854.73 1298.69,1855.73 1296.85,1857.72C1295.01,1859.72 1294.09,1862.51 1294.09,1866.11L1294.09,1881.84L1289.93,1881.84L1289.93,1850.97L1293.92,1850.97L1293.92,1857.02ZM1126.45,1850.74C1130.32,1850.74 1133.36,1851.85 1135.57,1854.08C1137.78,1856.31 1138.89,1859.6 1138.89,1863.94L1138.89,1881.84L1134.72,1881.84L1134.72,1864.35C1134.72,1861.14 1133.95,1858.7 1132.4,1857.02C1130.86,1855.34 1128.68,1854.5 1125.86,1854.5C1122.65,1854.5 1120.13,1855.48 1118.29,1857.46C1116.45,1859.43 1115.53,1862.16 1115.53,1865.64L1115.53,1881.84L1111.37,1881.84L1111.37,1864.35C1111.37,1861.14 1110.59,1858.7 1109.05,1857.02C1107.5,1855.34 1105.3,1854.5 1102.45,1854.5C1099.28,1854.5 1096.77,1855.48 1094.91,1857.46C1093.05,1859.43 1092.12,1862.16 1092.12,1865.64L1092.12,1881.84L1087.95,1881.84L1087.95,1850.97L1091.94,1850.97L1091.94,1856.61C1093.04,1854.73 1094.57,1853.28 1096.52,1852.27C1098.48,1851.25 1100.73,1850.74 1103.27,1850.74C1105.85,1850.74 1108.09,1851.29 1109.99,1852.38C1111.88,1853.48 1113.3,1855.1 1114.24,1857.25C1115.38,1855.22 1117.01,1853.62 1119.14,1852.47C1121.27,1851.32 1123.71,1850.74 1126.45,1850.74ZM1413.86,1878.85C1416.2,1878.85 1418.22,1878.31 1419.9,1877.23C1421.58,1876.16 1422.84,1874.6 1423.66,1872.57L1423.66,1867.52L1413.98,1867.52C1408.69,1867.52 1406.05,1869.36 1406.05,1873.04C1406.05,1874.84 1406.74,1876.26 1408.11,1877.29C1409.48,1878.33 1411.39,1878.85 1413.86,1878.85ZM1159.54,1878.85C1161.89,1878.85 1163.9,1878.31 1165.59,1877.23C1167.27,1876.16 1168.52,1874.6 1169.34,1872.57L1169.34,1867.52L1159.66,1867.52C1154.38,1867.52 1151.74,1869.36 1151.74,1873.04C1151.74,1874.84 1152.42,1876.26 1153.79,1877.29C1155.16,1878.33 1157.08,1878.85 1159.54,1878.85ZM1338.87,1878.85C1341.21,1878.85 1343.23,1878.31 1344.91,1877.23C1346.59,1876.16 1347.84,1874.6 1348.67,1872.57L1348.67,1867.52L1338.98,1867.52C1333.7,1867.52 1331.06,1869.36 1331.06,1873.04C1331.06,1874.84 1331.75,1876.26 1333.12,1877.29C1334.49,1878.33 1336.4,1878.85 1338.87,1878.85ZM1377.07,1876.97C1379.3,1876.97 1381.31,1876.49 1383.11,1875.53C1384.91,1874.57 1386.31,1873.23 1387.31,1871.51C1388.3,1869.79 1388.8,1867.83 1388.8,1865.64C1388.8,1863.45 1388.3,1861.51 1387.31,1859.81C1386.31,1858.1 1384.92,1856.77 1383.14,1855.82C1381.36,1854.86 1379.34,1854.38 1377.07,1854.38C1374.84,1854.38 1372.83,1854.85 1371.05,1855.79C1369.27,1856.72 1367.88,1858.05 1366.88,1859.78C1365.89,1861.5 1365.39,1863.45 1365.39,1865.64C1365.39,1867.83 1365.89,1869.79 1366.88,1871.51C1367.88,1873.23 1369.27,1874.57 1371.05,1875.53C1372.83,1876.49 1374.84,1876.97 1377.07,1876.97ZM1064.48,1854.32C1061.51,1854.32 1059.02,1855.27 1057,1857.16C1054.99,1859.06 1053.84,1861.54 1053.57,1864.59L1075.45,1864.59C1075.18,1861.54 1074.04,1859.06 1072.02,1857.16C1070.01,1855.27 1067.5,1854.32 1064.48,1854.32ZM1266.46,1854.32C1263.48,1854.32 1260.99,1855.27 1258.97,1857.16C1256.96,1859.06 1255.82,1861.54 1255.54,1864.59L1277.43,1864.59C1277.15,1861.54 1276.01,1859.06 1274,1857.16C1271.98,1855.27 1269.47,1854.32 1266.46,1854.32ZM1315.86,1844.17C1315,1844.17 1314.28,1843.87 1313.69,1843.29C1313.11,1842.7 1312.81,1842 1312.81,1841.17C1312.81,1840.39 1313.11,1839.71 1313.69,1839.12C1314.28,1838.53 1315,1838.24 1315.86,1838.24C1316.73,1838.24 1317.45,1838.52 1318.04,1839.09C1318.62,1839.66 1318.91,1840.33 1318.91,1841.12C1318.91,1841.98 1318.62,1842.7 1318.04,1843.29C1317.45,1843.87 1316.73,1844.17 1315.86,1844.17Z" style="fill-rule:nonzero;"/>
</svg>
